<svg width="144" height="74" viewBox="0 0 144 74" fill="none" xmlns="http://www.w3.org/2000/svg">
<g clip-path="url(#clip0)">
<path d="M119.975 7.58975V46.5135C117.613 45.2591 114.89 44.4843 111.967 44.4843C103.118 44.4843 95.9501 51.0885 95.9501 59.2422C95.9501 67.3959 103.118 74 111.967 74C120.816 74 127.983 67.3959 127.983 59.2422V22.3476H144V7.58975H119.975Z" fill="#3C5469"/>
</g>
<path d="M9.88531 29.0469L12.1002 26.2695C13.3658 27.957 14.9361 28.8008 16.8111 28.8008C19.2955 28.8008 20.6666 27.5703 20.9244 25.1094C21.0416 23.8906 20.3502 22.9531 18.8502 22.2969C17.3502 21.6172 15.8736 20.9492 14.4205 20.293C12.8033 19.2383 11.9947 17.6797 11.9947 15.6172C11.9947 15.2656 12.0181 14.8906 12.065 14.4922C12.2759 12.5234 13.2252 10.918 14.9127 9.67578C16.3189 8.62109 17.8072 8.09375 19.3775 8.09375C21.8619 8.09375 24.0416 8.94922 25.9166 10.6602L24.1236 13.6836C22.6705 12.1367 21.2173 11.3633 19.7642 11.3633C18.7798 11.3633 18.0416 11.5625 17.5494 11.9609C16.8931 12.4297 16.5064 13.2852 16.3892 14.5273C16.272 15.6055 16.9634 16.4727 18.4634 17.1289C21.1119 18.2773 22.5533 18.9219 22.7877 19.0625C24.3814 20.1641 25.1666 21.8047 25.1431 23.9844C25.1431 24.3125 25.1197 24.6641 25.0728 25.0391C24.815 27.5 23.8072 29.3867 22.0494 30.6992C20.5728 31.8008 18.8033 32.3516 16.7408 32.3516C13.483 32.3516 11.1978 31.25 9.88531 29.0469ZM31.8931 30.9805L31.0494 39.1016H27.2173L29.8189 14.1406H33.6861L33.3697 17.0938C33.7681 16.1562 34.4947 15.3359 35.5494 14.6328C36.6041 13.9063 37.6236 13.543 38.608 13.543C42.2408 13.5664 44.0572 15.9219 44.0572 20.6094C44.0572 21.2422 44.022 21.9102 43.9517 22.6133C43.2252 29.4336 40.3658 32.8438 35.3736 32.8438C34.6705 32.8203 33.5103 32.1992 31.8931 30.9805ZM32.9478 20.8555L32.2095 27.8867C33.5689 28.9883 34.7525 29.5391 35.7603 29.5391C36.8619 29.5391 37.7877 28.8008 38.5377 27.3242C39.1705 26.1289 39.5572 24.7109 39.6978 23.0703C39.7916 22.2266 39.8384 21.5234 39.8384 20.9609C39.8384 18.2188 38.9009 16.8477 37.0259 16.8477C36.44 16.8477 35.6783 17.3633 34.7408 18.3945C33.8502 19.3086 33.2525 20.1289 32.9478 20.8555ZM46.272 22.9297C46.6002 19.8594 47.8189 17.457 49.9283 15.7227C51.6861 14.293 53.6314 13.5781 55.7642 13.5781C57.7095 13.5781 59.3853 14.1875 60.7916 15.4062C62.4087 16.8594 63.2056 18.8984 63.1822 21.5234C63.1822 21.9688 63.1587 22.4375 63.1119 22.9297C62.9009 25.0391 62.1627 26.9727 60.897 28.7305C59.1392 31.168 56.772 32.3867 53.7955 32.3867C50.9127 32.3867 48.8384 31.4258 47.5728 29.5039C46.6587 28.1211 46.2017 26.375 46.2017 24.2656C46.2017 23.7969 46.2252 23.3516 46.272 22.9297ZM50.3853 24.2656C50.3853 25.7891 50.6666 27.0195 51.2291 27.957C51.8619 29.0352 52.7642 29.5742 53.9361 29.5742C55.5767 29.5742 56.8775 28.6484 57.8384 26.7969C58.6353 25.25 59.022 23.5625 58.9986 21.7344C58.9986 20.2109 58.7408 18.9805 58.2252 18.043C57.5923 16.9648 56.7252 16.4258 55.6236 16.4258C53.9127 16.4258 52.565 17.3398 51.5806 19.168C50.7837 20.7148 50.3853 22.4141 50.3853 24.2656ZM74.0103 8.33984C73.1666 8.31641 72.5923 9.07812 72.2877 10.625C72.2877 10.625 72.1705 11.7734 71.9361 14.0703H76.4009L76.0845 17.3047H71.6197L70.0728 32H66.2759L67.8228 17.3047H65.3267L65.6431 14.0703H68.1392L68.3853 12.1719C68.8541 7.48437 70.8345 5.14062 74.3267 5.14062C75.4283 5.14062 76.2486 5.30469 76.7877 5.63281C76.8814 5.70312 77.4087 6.20703 78.3697 7.14453L76.4009 9.57031C75.5572 8.77344 74.7603 8.36328 74.0103 8.33984ZM78.8267 8.33984C78.897 7.56641 79.2134 6.93359 79.7759 6.44141C80.3619 5.92578 81.0181 5.66797 81.7447 5.66797C82.4712 5.66797 83.0572 5.92578 83.5025 6.44141C83.9712 6.93359 84.1705 7.56641 84.1002 8.33984C84.0064 9.11328 83.6783 9.75781 83.1158 10.2734C82.5533 10.7891 81.9087 11.0469 81.1822 11.0469C80.4556 11.0469 79.858 10.7891 79.3892 10.2734C78.9205 9.75781 78.733 9.11328 78.8267 8.33984ZM78.9322 14.1758H82.7642L80.9009 32H77.0689L78.9322 14.1758ZM87.2994 39.0664C86.6197 39.0664 85.4947 38.7734 83.9244 38.1875L85.4361 34.7773C86.2798 35.2461 87.0884 35.4805 87.8619 35.4805C89.0806 35.5039 90.2759 33.957 91.4478 30.8398L86.5611 14.9844L90.7798 13.8945L93.6275 27.0781L98.9361 13.9648L102.452 14.8789L93.2056 34.8125C92.6431 35.9375 91.9048 36.8867 90.9908 37.6602C89.8658 38.5977 88.6353 39.0664 87.2994 39.0664Z" fill="#3C5469"/>
<defs>
<clipPath id="clip0">
<rect width="48.0499" height="66.4103" fill="white" transform="translate(95.9501 7.58975)"/>
</clipPath>
</defs>
</svg>
