<svg width="238" height="117" viewBox="0 0 238 117" fill="none" xmlns="http://www.w3.org/2000/svg">
<g clip-path="url(#clip0)">
<path d="M197.562 12V73.5417C193.671 71.5583 189.188 70.3333 184.374 70.3333C169.803 70.3333 158 80.775 158 93.6667C158 106.558 169.803 117 184.374 117C198.946 117 210.749 106.558 210.749 93.6667V35.3333H237.123V12H197.562Z" fill="white"/>
</g>
<path d="M10.25 50.75L14.1875 45.8125C16.4375 48.8125 19.2292 50.3125 22.5625 50.3125C26.9792 50.3125 29.4167 48.125 29.875 43.75C30.0833 41.5833 28.8542 39.9167 26.1875 38.75C23.5208 37.5417 20.8958 36.3542 18.3125 35.1875C15.4375 33.3125 14 30.5417 14 26.875C14 26.25 14.0417 25.5833 14.125 24.875C14.5 21.375 16.1875 18.5208 19.1875 16.3125C21.6875 14.4375 24.3333 13.5 27.125 13.5C31.5417 13.5 35.4167 15.0208 38.75 18.0625L35.5625 23.4375C32.9792 20.6875 30.3958 19.3125 27.8125 19.3125C26.0625 19.3125 24.75 19.6667 23.875 20.375C22.7083 21.2083 22.0208 22.7292 21.8125 24.9375C21.6042 26.8542 22.8333 28.3958 25.5 29.5625C30.2083 31.6042 32.7708 32.75 33.1875 33C36.0208 34.9583 37.4167 37.875 37.375 41.75C37.375 42.3333 37.3333 42.9583 37.25 43.625C36.7917 48 35 51.3542 31.875 53.6875C29.25 55.6458 26.1042 56.625 22.4375 56.625C16.6458 56.625 12.5833 54.6667 10.25 50.75ZM49.375 54.1875L47.875 68.625H41.0625L45.6875 24.25H52.5625L52 29.5C52.7083 27.8333 54 26.375 55.875 25.125C57.75 23.8333 59.5625 23.1875 61.3125 23.1875C67.7708 23.2292 71 27.4167 71 35.75C71 36.875 70.9375 38.0625 70.8125 39.3125C69.5208 51.4375 64.4375 57.5 55.5625 57.5C54.3125 57.4583 52.25 56.3542 49.375 54.1875ZM51.25 36.1875L49.9375 48.6875C52.3542 50.6458 54.4583 51.625 56.25 51.625C58.2083 51.625 59.8542 50.3125 61.1875 47.6875C62.3125 45.5625 63 43.0417 63.25 40.125C63.4167 38.625 63.5 37.375 63.5 36.375C63.5 31.5 61.8333 29.0625 58.5 29.0625C57.4583 29.0625 56.1042 29.9792 54.4375 31.8125C52.8542 33.4375 51.7917 34.8958 51.25 36.1875ZM74.9375 39.875C75.5208 34.4167 77.6875 30.1458 81.4375 27.0625C84.5625 24.5208 88.0208 23.25 91.8125 23.25C95.2708 23.25 98.25 24.3333 100.75 26.5C103.625 29.0833 105.042 32.7083 105 37.375C105 38.1667 104.958 39 104.875 39.875C104.5 43.625 103.188 47.0625 100.938 50.1875C97.8125 54.5208 93.6042 56.6875 88.3125 56.6875C83.1875 56.6875 79.5 54.9792 77.25 51.5625C75.625 49.1042 74.8125 46 74.8125 42.25C74.8125 41.4167 74.8542 40.625 74.9375 39.875ZM82.25 42.25C82.25 44.9583 82.75 47.1458 83.75 48.8125C84.875 50.7292 86.4792 51.6875 88.5625 51.6875C91.4792 51.6875 93.7917 50.0417 95.5 46.75C96.9167 44 97.6042 41 97.5625 37.75C97.5625 35.0417 97.1042 32.8542 96.1875 31.1875C95.0625 29.2708 93.5208 28.3125 91.5625 28.3125C88.5208 28.3125 86.125 29.9375 84.375 33.1875C82.9583 35.9375 82.25 38.9583 82.25 42.25ZM124.25 13.9375C122.75 13.8958 121.729 15.25 121.188 18C121.188 18 120.979 20.0417 120.562 24.125H128.5L127.938 29.875H120L117.25 56H110.5L113.25 29.875H108.812L109.375 24.125H113.812L114.25 20.75C115.083 12.4167 118.604 8.25 124.812 8.25C126.771 8.25 128.229 8.54167 129.188 9.125C129.354 9.25 130.292 10.1458 132 11.8125L128.5 16.125C127 14.7083 125.583 13.9792 124.25 13.9375ZM132.812 13.9375C132.938 12.5625 133.5 11.4375 134.5 10.5625C135.542 9.64583 136.708 9.1875 138 9.1875C139.292 9.1875 140.333 9.64583 141.125 10.5625C141.958 11.4375 142.312 12.5625 142.188 13.9375C142.021 15.3125 141.438 16.4583 140.438 17.375C139.438 18.2917 138.292 18.75 137 18.75C135.708 18.75 134.646 18.2917 133.812 17.375C132.979 16.4583 132.646 15.3125 132.812 13.9375ZM133 24.3125H139.812L136.5 56H129.688L133 24.3125ZM147.875 68.5625C146.667 68.5625 144.667 68.0417 141.875 67L144.562 60.9375C146.062 61.7708 147.5 62.1875 148.875 62.1875C151.042 62.2292 153.167 59.4792 155.25 53.9375L146.562 25.75L154.062 23.8125L159.125 47.25L168.562 23.9375L174.812 25.5625L158.375 61C157.375 63 156.062 64.6875 154.438 66.0625C152.438 67.7292 150.25 68.5625 147.875 68.5625Z" fill="white"/>
<defs>
<clipPath id="clip0">
<rect width="79.1232" height="105" fill="white" transform="translate(158 12)"/>
</clipPath>
</defs>
</svg>
